<svg class="svg-icon" style="width: 1em; height: 1em;vertical-align: middle;fill: currentColor;overflow: hidden;" viewBox="0 0 1024 1024" version="1.1" xmlns="http://www.w3.org/2000/svg"><path d="M411.415652 331.212494l-94.882997 96.894817c49.41034 110.090351 154.227594 232.719272 275.850605 273.92372l82.101903-82.057901c0 0 194.57758 34.048467 238.298338 55.362912 37.900192 18.467607 50.462299 59.343573 44.509726 109.761869-6.389524 54.224995-77.157287 173.724647-204.732871 175.037549-127.529535 1.312902-315.324642-95.079472-449.944666-237.337453C168.082648 580.540026 48.080553 400.251893 67.337129 247.162216 86.505701 94.028537 219.462852 66.654073 252.724397 64.224744c33.611515-2.494821 60.308551 7.41897 80.615039 32.627095C359.422488 129.325437 411.415652 331.212494 411.415652 331.212494L411.415652 331.212494 411.415652 331.212494zM303.622624 128.516002c-15.798824-20.788465-43.020816-24.224728-70.198805-17.812691-24.114211 5.690606-112.169709 42.320874-124.598786 140.441613-13.829983 109.083417 67.223031 293.66125 212.784244 434.911274 145.562237 141.230582 285.739836 223.682455 406.225955 233.529731 120.57003 9.847276 179.346691-96.588849 187.881065-128.536468 8.578376-31.970132 1.488911-64.290235-15.798824-77.135798-22.101367-16.391319-211.646328-50.439786-211.646328-50.439786l-85.99763 85.058235c-141.40352-46.15111-274.579659-175.365007-331.254449-333.246827l93.919043-94.925976C364.937085 320.336796 319.46545 149.260465 303.622624 128.516002L303.622624 128.516002 303.622624 128.516002zM303.622624 128.516002"  /></svg>